Coordinates
version=1
nRows=8
nColumns=40
inDegrees=yes

Units are S.I. units (second, meters, Newtons, ...)
Angles are in degrees.

endheader
time	pelvis_tilt	pelvis_list	pelvis_rotation	pelvis_tx	pelvis_ty	pelvis_tz	hip_flexion_r	hip_adduction_r	hip_rotation_r	knee_angle_r	knee_angle_r_beta	ankle_angle_r	subtalar_angle_r	mtp_angle_r	hip_flexion_l	hip_adduction_l	hip_rotation_l	knee_angle_l	knee_angle_l_beta	ankle_angle_l	subtalar_angle_l	mtp_angle_l	lumbar_extension	lumbar_bending	lumbar_rotation	arm_flex_r	arm_add_r	arm_rot_r	elbow_flex_r	pro_sup_r	wrist_flex_r	wrist_dev_r	arm_flex_l	arm_add_l	arm_rot_l	elbow_flex_l	pro_sup_l	wrist_flex_l	wrist_dev_l
     22.51750000	     -6.33047683	     -5.18481569	      1.74926206	      0.97798973	      0.92555458	      0.47456054	      4.15521581	     -0.43294742	    -14.15922746	     24.13783227	     24.13783227	     13.92882485	      0.39948412	     -9.31878698	     26.60433675	     -5.72514226	     -1.56398905	     23.71798010	     23.71798010	      7.05928922	    -14.23916445	      5.71682742	     -8.86507687	      6.08894117	      2.96611252	     16.92051860	    -17.26301523	     -4.66174051	     89.61726897	     44.45748050	      0.00000000	      0.00000000	     -7.25314226	     -8.30142833	     -5.53787598	     32.46597384	     45.99344488	      0.00000000	      0.00000000
     22.53000000	     -6.31818744	     -5.09882910	      1.47084612	      0.97734890	      0.92661701	      0.47197168	      5.87023771	     -1.25726532	    -13.61769860	     28.07906776	     28.07906776	     12.94492781	     -1.03289278	    -10.15179401	     25.86265857	     -5.63032406	     -2.11957535	     23.43177974	     23.43177974	      7.52603354	    -13.86500325	      5.43641879	     -8.96984923	      5.94879403	      3.19743618	     15.11673122	    -17.18502168	     -4.38531505	     87.97445830	     44.50120194	      0.00000000	      0.00000000	     -6.56745879	     -8.30796615	     -5.54408433	     33.02530506	     46.00512635	      0.00000000	      0.00000000
     22.54250000	     -6.46982642	     -5.20188893	      1.13199641	      0.97640413	      0.92727124	      0.46985768	      7.98634057	     -1.65533050	    -12.47059085	     32.05836159	     32.05836159	     10.55520356	     -4.18408875	    -13.37926259	     25.34579673	     -5.81498790	     -2.80942572	     23.17507590	     23.17507590	      7.82850421	    -13.24739500	      4.49208085	     -8.82797099	      5.96352589	      2.91582359	     14.28503867	    -16.39970866	     -4.39105183	     83.89068432	     44.67250038	      0.00000000	      0.00000000	     -6.65863342	     -8.54618449	     -5.21877163	     34.77763045	     45.96944920	      0.00000000	      0.00000000
     22.55500000	     -6.46226736	     -5.07919430	      0.77228833	      0.97528326	      0.92787599	      0.46766649	     10.31671348	     -2.49975968	    -11.76097903	     36.78376076	     36.78376076	      9.05212997	     -5.85372813	    -13.98460094	     24.65497697	     -5.72889505	     -3.46376990	     22.94662064	     22.94662064	      8.26442474	    -12.88475827	      4.15044428	     -9.01840735	      5.77700347	      3.13025025	     12.59640182	    -16.34370324	     -4.01482971	     82.18813934	     44.71406559	      0.00000000	      0.00000000	     -5.90580662	     -8.64607952	     -5.24367858	     35.47463930	     45.98600766	      0.00000000	      0.00000000
     22.56750000	     -6.53414251	     -5.18345471	      0.39103968	      0.97398646	      0.92820328	      0.46599470	     12.90177049	     -2.73011005	    -10.44583404	     41.45756797	     41.45756797	      7.00174116	     -8.91413334	    -14.32327693	     24.17290831	     -5.97953389	     -4.24978208	     22.89726804	     22.89726804	      8.64255225	    -12.15355199	      3.20242536	     -9.02727993	      5.78430051	      3.22813704	     11.53558917	    -15.95939542	     -3.81035426	     78.25963255	     44.84676806	      0.00000000	      0.00000000	     -5.50663120	     -8.90495545	     -5.03397470	     37.04305924	     45.97603262	      0.00000000	      0.00000000
     22.58000000	     -6.52286125	     -4.96722293	      0.01577818	      0.97263121	      0.92841114	      0.46416588	     15.55825120	     -3.47231181	     -9.53117360	     46.29513771	     46.29513771	      5.24551229	    -10.62370198	    -14.23165153	     23.49626140	     -5.81565518	     -4.96447654	     22.68177388	     22.68177388	      9.06939765	    -11.72200003	      2.73271679	     -9.20934664	      5.48205620	      3.16513456	     10.11494991	    -15.63086224	     -3.43237591	     76.20951923	     44.90006180	      0.00000000	      0.00000000	     -4.82026043	     -9.17370104	     -4.99210828	     37.88586851	     45.98564332	      0.00000000	      0.00000000
     22.59250000	     -6.40968251	     -5.00504196	     -0.30570161	      0.97123086	      0.92863762	      0.46270872	     18.18806156	     -3.67284016	     -8.47719947	     51.03852843	     51.03852843	      4.29124094	    -12.28197919	    -11.27201946	     22.81719275	     -5.98641354	     -5.74261135	     22.59431961	     22.59431961	      9.18078357	    -11.09137840	      1.12710956	     -9.35594751	      5.37937926	      2.14864492	     10.55089467	    -14.68243562	     -2.25306142	     70.11694270	     45.08907746	      0.00000000	      0.00000000	     -5.36050452	     -9.88652648	     -4.11443423	     40.81592646	     45.92379116	      0.00000000	      0.00000000
     22.60500000	     -6.28121768	     -4.94664840	     -0.62571013	      0.96979787	      0.92883250	      0.46126574	     20.81764067	     -3.93430718	     -7.52070888	     55.51522144	     55.51522144	      3.64612556	    -13.36278443	     -7.83968831	     22.13262301	     -6.01295593	     -6.41368360	     22.54000298	     22.54000298	      9.52807290	    -10.59760496	      0.26275307	     -9.60272673	      5.23220201	      1.77924082	      9.88968662	    -14.28529534	     -1.44545173	     66.29534492	     45.20426166	      0.00000000	      0.00000000	     -4.87075496	    -10.41396256	     -3.69574169	     42.28468347	     45.93538420	      0.00000000	      0.00000000
